<svg width="17" height="17" viewBox="0 0 17 17" fill="none" xmlns="http://www.w3.org/2000/svg">
<g clip-path="url(#clip0_243_41)">
<path d="M8.53399 1.411C8.02399 1.411 7.55082 1.5385 7.11449 1.7935C6.67816 2.0485 6.33249 2.39417 6.07749 2.8305C5.82249 3.26683 5.69499 3.74 5.69499 4.25H4.24999C4.24999 3.47933 4.43982 2.76817 4.81949 2.1165C5.19916 1.46483 5.71482 0.949166 6.36649 0.569499C7.01816 0.189832 7.72932 -9.23872e-07 8.49999 -9.23872e-07C9.27066 -9.23872e-07 9.98183 0.189832 10.6335 0.569499C11.2852 0.949166 11.8008 1.46483 12.1805 2.1165C12.5602 2.76817 12.75 3.47933 12.75 4.25H15.538C15.946 4.25 16.2917 4.3945 16.575 4.6835C16.8583 4.9725 17 5.32667 17 5.746C17 5.83667 16.9943 5.92167 16.983 6.001L15.402 15.147C15.3113 15.6797 15.062 16.1217 14.654 16.473C14.246 16.8243 13.7757 17 13.243 17H3.75699C3.22432 17 2.75399 16.8243 2.34599 16.473C1.93799 16.1217 1.68866 15.6797 1.59799 15.147L0.0169908 6.018C-0.0510092 5.61 0.0311575 5.236 0.263491 4.896C0.495824 4.556 0.810324 4.34633 1.20699 4.267C1.28632 4.25567 1.37132 4.25 1.46199 4.25H11.373C11.373 3.74 11.2455 3.26683 10.9905 2.8305C10.7355 2.39417 10.3898 2.0485 9.95349 1.7935C9.51716 1.5385 9.04399 1.411 8.53399 1.411ZM15.538 5.661H1.46199C1.45066 5.661 1.43366 5.68367 1.41099 5.729V5.763L2.99199 14.909C3.02599 15.0903 3.10532 15.2433 3.22999 15.368C3.35466 15.4927 3.50199 15.5607 3.67199 15.572L3.75699 15.589H13.243C13.413 15.589 13.5688 15.5352 13.7105 15.4275C13.8522 15.3198 13.9457 15.1753 13.991 14.994L15.589 5.746C15.589 5.70067 15.5777 5.678 15.555 5.678L15.538 5.661Z" fill="#0090F0"/>
</g>
<defs>
<clipPath id="clip0_243_41">
<rect width="17" height="17" fill="white" transform="matrix(1 0 0 -1 0 17)"/>
</clipPath>
</defs>
</svg>
