<svg width="25" height="25" viewBox="0 0 25 25" fill="none" xmlns="http://www.w3.org/2000/svg">
<path d="M21.625 7.8125L23.1875 23.4375H1.3125L2.875 7.8125H6V7.61719C6 5.95703 6.59408 4.53288 7.78223 3.34473C8.97038 2.15658 10.3945 1.5625 12.0547 1.5625H12.4453C14.1055 1.5625 15.5296 2.15658 16.7178 3.34473C17.9059 4.53288 18.5 5.95703 18.5 7.61719V7.8125H21.625ZM7.5625 7.61719V7.8125H16.9375V7.61719C16.9375 6.38021 16.498 5.32227 15.6191 4.44336C14.7402 3.56445 13.6823 3.125 12.4453 3.125H12.0547C10.8177 3.125 9.75977 3.56445 8.88086 4.44336C8.00195 5.32227 7.5625 6.38021 7.5625 7.61719ZM3.07031 21.875H21.4297L20.209 9.375H18.5V11.1328C19.0208 11.4583 19.2812 11.9141 19.2812 12.5C19.2812 12.9557 19.1348 13.3301 18.8418 13.623C18.5488 13.916 18.1745 14.0625 17.7188 14.0625C17.263 14.0625 16.8887 13.916 16.5957 13.623C16.3027 13.3301 16.1562 12.9557 16.1562 12.5C16.1562 11.9141 16.4167 11.4583 16.9375 11.1328V9.375H7.5625V11.1328C8.08333 11.4583 8.34375 11.9141 8.34375 12.5C8.34375 12.9557 8.19727 13.3301 7.9043 13.623C7.61133 13.916 7.23698 14.0625 6.78125 14.0625C6.32552 14.0625 5.95117 13.916 5.6582 13.623C5.36523 13.3301 5.21875 12.9557 5.21875 12.5C5.21875 11.9141 5.47917 11.4583 6 11.1328V9.375H4.29102L3.07031 21.875Z" fill="white"/>
</svg>
