<svg width="16" height="14" viewBox="0 0 16 14" fill="none" xmlns="http://www.w3.org/2000/svg">
<path d="M4.27734 5.15625C4.77539 5.15625 5.21484 5.5957 5.21484 6.09375C5.21484 6.62109 4.77539 7.03125 4.27734 7.03125C3.75 7.03125 3.33984 6.62109 3.33984 6.09375C3.33984 5.5957 3.75 5.15625 4.27734 5.15625ZM7.55859 5.15625C8.05664 5.15625 8.49609 5.5957 8.49609 6.09375C8.49609 6.62109 8.05664 7.03125 7.55859 7.03125C7.03125 7.03125 6.62109 6.62109 6.62109 6.09375C6.62109 5.5957 7.03125 5.15625 7.55859 5.15625ZM10.8398 5.15625C11.3379 5.15625 11.7773 5.5957 11.7773 6.09375C11.7773 6.62109 11.3379 7.03125 10.8398 7.03125C10.3125 7.03125 9.90234 6.62109 9.90234 6.09375C9.90234 5.5957 10.3125 5.15625 10.8398 5.15625ZM7.55859 0C11.6895 0 15.0586 2.75391 15.0586 6.09375C15.0586 9.46289 11.6895 12.1875 7.55859 12.1875C6.5918 12.1875 5.68359 12.041 4.83398 11.7773C3.98438 12.3926 2.54883 13.125 0.761719 13.125C0.46875 13.125 0.205078 12.9785 0.0878906 12.7148C0 12.4512 0.0292969 12.1582 0.234375 11.9531C0.263672 11.9531 1.17188 10.957 1.58203 9.81445C0.615234 8.78906 0.0585938 7.5 0.0585938 6.09375C0.0585938 2.75391 3.39844 0 7.55859 0ZM7.55859 10.7812C10.8984 10.7812 13.6523 8.70117 13.6523 6.09375C13.6523 3.51562 10.8984 1.40625 7.55859 1.40625C4.18945 1.40625 1.46484 3.51562 1.46484 6.09375C1.46484 7.35352 2.08008 8.29102 2.60742 8.84766L3.22266 9.49219L2.90039 10.3125C2.75391 10.7227 2.54883 11.1328 2.31445 11.4844C3.01758 11.25 3.60352 10.9277 4.01367 10.6348L4.57031 10.2246L5.24414 10.4297C5.97656 10.6641 6.76758 10.7812 7.55859 10.7812Z" fill="#253237"/>
</svg>
