<svg width="19" height="30" viewBox="0 0 19 30" fill="none" xmlns="http://www.w3.org/2000/svg">
<g clip-path="url(#clip0_16_1084)">
<path d="M3.75 8.96484C3.75 9.23828 3.61328 9.375 3.33984 9.375H0.410156C0.136719 9.375 0 9.23828 0 8.96484V6.03516C0 5.76172 0.136719 5.625 0.410156 5.625H3.33984C3.61328 5.625 3.75 5.76172 3.75 6.03516V8.96484ZM11.25 8.96484C11.25 9.23828 11.1133 9.375 10.8398 9.375H7.91016C7.63672 9.375 7.5 9.23828 7.5 8.96484V6.03516C7.5 5.76172 7.63672 5.625 7.91016 5.625H10.8398C11.1133 5.625 11.25 5.76172 11.25 6.03516V8.96484ZM18.75 8.96484C18.75 9.23828 18.6133 9.375 18.3398 9.375H15.4102C15.1367 9.375 15 9.23828 15 8.96484V6.03516C15 5.76172 15.1367 5.625 15.4102 5.625H18.3398C18.6133 5.625 18.75 5.76172 18.75 6.03516V8.96484ZM3.75 16.4648C3.75 16.7383 3.61328 16.875 3.33984 16.875H0.410156C0.136719 16.875 0 16.7383 0 16.4648V13.5352C0 13.2617 0.136719 13.125 0.410156 13.125H3.33984C3.61328 13.125 3.75 13.2617 3.75 13.5352V16.4648ZM11.25 16.4648C11.25 16.7383 11.1133 16.875 10.8398 16.875H7.91016C7.63672 16.875 7.5 16.7383 7.5 16.4648V13.5352C7.5 13.2617 7.63672 13.125 7.91016 13.125H10.8398C11.1133 13.125 11.25 13.2617 11.25 13.5352V16.4648ZM18.75 16.4648C18.75 16.7383 18.6133 16.875 18.3398 16.875H15.4102C15.1367 16.875 15 16.7383 15 16.4648V13.5352C15 13.2617 15.1367 13.125 15.4102 13.125H18.3398C18.6133 13.125 18.75 13.2617 18.75 13.5352V16.4648ZM3.75 23.9648C3.75 24.2383 3.61328 24.375 3.33984 24.375H0.410156C0.136719 24.375 0 24.2383 0 23.9648V21.0352C0 20.7617 0.136719 20.625 0.410156 20.625H3.33984C3.61328 20.625 3.75 20.7617 3.75 21.0352V23.9648ZM11.25 23.9648C11.25 24.2383 11.1133 24.375 10.8398 24.375H7.91016C7.63672 24.375 7.5 24.2383 7.5 23.9648V21.0352C7.5 20.7617 7.63672 20.625 7.91016 20.625H10.8398C11.1133 20.625 11.25 20.7617 11.25 21.0352V23.9648ZM18.75 23.9648C18.75 24.2383 18.6133 24.375 18.3398 24.375H15.4102C15.1367 24.375 15 24.2383 15 23.9648V21.0352C15 20.7617 15.1367 20.625 15.4102 20.625H18.3398C18.6133 20.625 18.75 20.7617 18.75 21.0352V23.9648Z" fill="#0090F0"/>
</g>
<defs>
<clipPath id="clip0_16_1084">
<rect width="18.75" height="30" fill="white" transform="matrix(1 0 0 -1 0 30)"/>
</clipPath>
</defs>
</svg>
