<svg width="13" height="13" viewBox="0 0 13 13" fill="none" xmlns="http://www.w3.org/2000/svg">
<g clip-path="url(#clip0_16_79)">
<path d="M6.5 1.21875C7.95573 1.21875 9.19987 1.73503 10.2324 2.76758C11.265 3.80013 11.7812 5.04427 11.7812 6.5C11.7812 6.88932 11.7474 7.24479 11.6797 7.56641L11.6543 7.66797L11.0449 7.54102L11.0703 7.43945C11.138 7.0332 11.1719 6.72005 11.1719 6.5C11.1719 5.21354 10.7148 4.11328 9.80078 3.19922C8.88672 2.28516 7.78646 1.82812 6.5 1.82812C5.67057 1.82812 4.89193 2.03971 4.16406 2.46289C3.4362 2.88607 2.86068 3.47005 2.4375 4.21484L2.38672 4.29102L1.85352 4.01172L1.9043 3.91016C2.37826 3.08073 3.02572 2.4248 3.84668 1.94238C4.66764 1.45996 5.55208 1.21875 6.5 1.21875ZM10.5625 8.78516L10.6133 8.70898L11.1465 8.98828L11.0957 9.08984C10.6217 9.91927 9.97428 10.5752 9.15332 11.0576C8.33236 11.54 7.44792 11.7812 6.5 11.7812C5.04427 11.7812 3.80013 11.265 2.76758 10.2324C1.73503 9.19987 1.21875 7.95573 1.21875 6.5C1.21875 6.11068 1.2526 5.75521 1.32031 5.43359L1.3457 5.33203L1.95508 5.45898L1.92969 5.56055C1.86198 5.9668 1.82812 6.27995 1.82812 6.5C1.82812 7.78646 2.28516 8.88672 3.19922 9.80078C4.11328 10.7148 5.21354 11.1719 6.5 11.1719C7.32943 11.1719 8.10807 10.9603 8.83594 10.5371C9.5638 10.1139 10.1393 9.52995 10.5625 8.78516ZM9.75 6.5H13L11.375 8.125L9.75 6.5ZM0 6.5L1.625 4.875L3.25 6.5H0Z" fill="#253237"/>
</g>
<defs>
<clipPath id="clip0_16_79">
<rect width="13" height="13" fill="white" transform="matrix(1 0 0 -1 0 13)"/>
</clipPath>
</defs>
</svg>
