<svg width="15" height="8" viewBox="0 0 15 8" fill="none" xmlns="http://www.w3.org/2000/svg">
<mask id="path-1-outside-1_16_1093" maskUnits="userSpaceOnUse" x="-0.57016" y="-0.984375" width="16" height="9" fill="black">
<rect fill="white" x="-0.57016" y="-0.984375" width="16" height="9"/>
<path d="M2.41422 1H12.4455L7.42984 6.01562L2.41422 1Z"/>
</mask>
<path d="M2.41422 1H12.4455L7.42984 6.01562L2.41422 1Z" fill="#253237"/>
<path d="M2.41422 1V0H1.43051e-06L1.70711 1.70711L2.41422 1ZM12.4455 1L13.1526 1.70711L14.8597 0H12.4455V1ZM7.42984 6.01562L6.72273 6.72273L7.42984 7.42984L8.13695 6.72273L7.42984 6.01562ZM2.41422 1V2H12.4455V1V0H2.41422V1ZM12.4455 1L11.7384 0.292893L6.72273 5.30852L7.42984 6.01562L8.13695 6.72273L13.1526 1.70711L12.4455 1ZM7.42984 6.01562L8.13695 5.30852L3.12132 0.292893L2.41422 1L1.70711 1.70711L6.72273 6.72273L7.42984 6.01562Z" fill="black" mask="url(#path-1-outside-1_16_1093)"/>
</svg>
