<svg width="16" height="16" viewBox="0 0 16 16" fill="none" xmlns="http://www.w3.org/2000/svg">
<path d="M12.4688 5.85938C12.3333 5.73438 12.1771 5.67188 12 5.67188C11.8229 5.67188 11.6667 5.73438 11.5312 5.85938L8 9.40625L4.46875 5.85938C4.33333 5.73438 4.17708 5.67188 4 5.67188C3.82292 5.67188 3.66667 5.73438 3.53125 5.85938C3.39583 5.99479 3.32812 6.15104 3.32812 6.32812C3.32812 6.50521 3.39583 6.66146 3.53125 6.79688L7.53125 10.7969C7.60417 10.8698 7.6849 10.9219 7.77344 10.9531C7.86198 10.9844 7.9375 11 8 11C8.0625 11 8.13802 10.9844 8.22656 10.9531C8.3151 10.9219 8.39583 10.8698 8.46875 10.7969L12.4688 6.79688C12.6042 6.66146 12.6719 6.50521 12.6719 6.32812C12.6719 6.15104 12.6042 5.99479 12.4688 5.85938Z" fill="white"/>
</svg>
