<svg width="11" height="30" viewBox="0 0 11 30" fill="none" xmlns="http://www.w3.org/2000/svg">
<g clip-path="url(#clip0_16_2889)">
<path d="M7.38646 15.7036C7.73819 15.9849 8.002 16.2077 8.17786 16.3719C8.35373 16.536 8.5296 16.7939 8.70547 17.1457C8.88134 17.4974 8.96927 17.8726 8.96927 18.2712C8.96927 19.2092 8.5296 20.024 7.65026 20.7158C6.77092 21.4075 5.56915 21.7534 4.04497 21.7534C2.73182 21.7534 1.72937 21.4838 1.03762 20.9444C0.345874 20.4051 0 19.772 0 19.045C0 18.1071 0.492431 17.345 1.47729 16.7588C2.15731 16.3601 3.1539 16.1022 4.46705 15.9849C4.27946 15.6567 4.18566 15.3401 4.18566 15.0353C4.18566 14.8711 4.19738 14.7539 4.22083 14.6835H4.08014C3.09528 14.6835 2.30973 14.3787 1.72351 13.769C1.16073 13.2062 0.87934 12.5379 0.87934 11.7641C0.87934 10.7793 1.2897 9.94681 2.11042 9.26679C2.97803 8.58676 4.09186 8.24675 5.45191 8.24675H10.13L8.01958 9.40748H7.56233C8.10166 10.0406 8.37132 10.7206 8.37132 11.4475C8.37132 11.8931 8.27752 12.2976 8.08993 12.661C7.90234 13.0245 7.72061 13.2883 7.54474 13.4524C7.36887 13.6166 7.11679 13.8159 6.78851 14.0504V14.0856C6.53057 14.3435 6.4016 14.5428 6.4016 14.6835C6.4016 14.8477 6.51884 15.0235 6.75333 15.2111L7.38646 15.7036ZM2.98976 10.9199C2.98976 11.5296 3.1539 12.1276 3.48219 12.7138C3.85737 13.3469 4.33808 13.6635 4.92431 13.6635C5.32294 13.6635 5.65123 13.5345 5.90917 13.2766C6.14366 13.0421 6.2609 12.6904 6.2609 12.2214C6.2609 11.5882 6.08503 10.9551 5.7333 10.322C5.38156 9.68887 4.91258 9.37231 4.32635 9.37231C3.90427 9.37231 3.56426 9.52473 3.30632 9.82956C3.09528 10.0875 2.98976 10.451 2.98976 10.9199ZM7.24576 18.9395C7.24576 18.6112 7.12852 18.3181 6.89403 18.0602C6.65954 17.8022 6.19056 17.4388 5.48708 16.9698C5.46363 16.9698 5.4226 16.9639 5.36398 16.9522C5.30535 16.9405 5.25259 16.9346 5.20569 16.9346C4.59602 16.9346 3.99807 17.0284 3.41184 17.216C2.54422 17.5443 2.11042 18.0367 2.11042 18.6933C2.11042 19.2326 2.36836 19.6665 2.88424 19.9947C3.40012 20.323 4.08014 20.4872 4.92431 20.4872C5.65123 20.4872 6.21987 20.3465 6.63023 20.0651C7.04058 19.7837 7.24576 19.4085 7.24576 18.9395Z" fill="#B4B4B4"/>
</g>
<defs>
<clipPath id="clip0_16_2889">
<rect width="10.13" height="30" fill="white" transform="matrix(1 0 0 -1 0 30)"/>
</clipPath>
</defs>
</svg>
