<svg width="11" height="22" viewBox="0 0 11 22" fill="none" xmlns="http://www.w3.org/2000/svg">
<g filter="url(#filter0_d_16_780)">
<path d="M7.37917 7.45697C7.73055 7.73836 7.9941 7.96113 8.16979 8.12527C8.34549 8.28942 8.52118 8.54736 8.69687 8.89909C8.87257 9.25083 8.96042 9.62601 8.96042 10.0246C8.96042 10.9626 8.52118 11.7775 7.64271 12.4692C6.76424 13.161 5.56366 13.5068 4.04097 13.5068C2.72912 13.5068 1.72766 13.2372 1.0366 12.6978C0.345532 12.1585 0 11.5254 0 10.7985C0 9.8605 0.491944 9.09841 1.47583 8.51218C2.15518 8.11355 3.15079 7.85561 4.46264 7.73836C4.27523 7.41008 4.18153 7.09351 4.18153 6.78868C4.18153 6.62453 4.19324 6.50729 4.21667 6.43694H4.07611C3.09222 6.43694 2.30745 6.1321 1.72181 5.52243C1.15958 4.95965 0.878472 4.29135 0.878472 3.51753C0.878472 2.53267 1.28843 1.70023 2.10833 1.0202C2.97509 0.340181 4.08782 0.000169754 5.44653 0.000169754H10.12L8.01167 1.1609H7.55486C8.09366 1.79402 8.36306 2.47405 8.36306 3.20097C8.36306 3.6465 8.26935 4.051 8.08194 4.41446C7.89454 4.77792 7.71299 5.04172 7.53729 5.20586C7.3616 5.37001 7.10977 5.56932 6.78181 5.80382V5.83899C6.52412 6.09693 6.39528 6.29625 6.39528 6.43694C6.39528 6.60108 6.51241 6.77695 6.74667 6.96454L7.37917 7.45697ZM2.98681 2.67336C2.98681 3.28304 3.15079 3.88099 3.47875 4.46722C3.85356 5.10034 4.3338 5.41691 4.91944 5.41691C5.31768 5.41691 5.64565 5.28794 5.90333 5.03C6.13759 4.79551 6.25472 4.44377 6.25472 3.97479C6.25472 3.34166 6.07903 2.70854 5.72764 2.07541C5.37625 1.44229 4.90773 1.12572 4.32208 1.12572C3.90042 1.12572 3.56074 1.27814 3.30306 1.58298C3.09222 1.84092 2.98681 2.20438 2.98681 2.67336ZM7.23861 10.6929C7.23861 10.3647 7.12148 10.0715 6.88722 9.81361C6.65296 9.55567 6.18444 9.19221 5.48167 8.72323C5.45824 8.72323 5.41725 8.71736 5.35868 8.70564C5.30012 8.69391 5.24741 8.68805 5.20056 8.68805C4.59148 8.68805 3.99412 8.78185 3.40847 8.96944C2.54171 9.29773 2.10833 9.79016 2.10833 10.4467C2.10833 10.9861 2.36602 11.4199 2.88139 11.7482C3.39676 12.0764 4.07611 12.2406 4.91944 12.2406C5.64565 12.2406 6.21373 12.0999 6.62368 11.8185C7.03363 11.5371 7.23861 11.1619 7.23861 10.6929Z" fill="white"/>
</g>
<defs>
<filter id="filter0_d_16_780" x="-4" y="0" width="18.1201" height="21.5068" filterUnits="userSpaceOnUse" color-interpolation-filters="sRGB">
<feFlood flood-opacity="0" result="BackgroundImageFix"/>
<feColorMatrix in="SourceAlpha" type="matrix" values="0 0 0 0 0 0 0 0 0 0 0 0 0 0 0 0 0 0 127 0" result="hardAlpha"/>
<feOffset dy="4"/>
<feGaussianBlur stdDeviation="2"/>
<feComposite in2="hardAlpha" operator="out"/>
<feColorMatrix type="matrix" values="0 0 0 0 0 0 0 0 0 0 0 0 0 0 0 0 0 0 0.25 0"/>
<feBlend mode="normal" in2="BackgroundImageFix" result="effect1_dropShadow_16_780"/>
<feBlend mode="normal" in="SourceGraphic" in2="effect1_dropShadow_16_780" result="shape"/>
</filter>
</defs>
</svg>
