<svg width="15" height="18" viewBox="0 0 15 18" fill="none" xmlns="http://www.w3.org/2000/svg">
<g clip-path="url(#clip0_16_2873)">
<path d="M10.6196 2.25C11.7446 2.25 12.6938 2.63672 13.4673 3.41016C14.2407 4.18359 14.6274 5.14453 14.6274 6.29297C14.6274 6.97266 14.5044 7.62305 14.2583 8.24414C14.0122 8.86523 13.5435 9.57422 12.8521 10.3711C12.1606 11.168 11.5454 11.8242 11.0063 12.3398C10.4673 12.8555 9.58838 13.6758 8.36963 14.8008L7.31494 15.75L6.26025 14.8008C5.0415 13.6758 4.1626 12.8555 3.62354 12.3398C3.08447 11.8242 2.46924 11.168 1.77783 10.3711C1.08643 9.57422 0.617676 8.86523 0.371582 8.24414C0.125488 7.62305 0.00244141 6.97266 0.00244141 6.29297C0.00244141 5.14453 0.38916 4.18359 1.1626 3.41016C1.93604 2.63672 2.88525 2.25 4.01025 2.25C5.34619 2.25 6.44775 2.76562 7.31494 3.79688C8.18213 2.76562 9.28369 2.25 10.6196 2.25ZM7.77197 13.8164C9.99854 11.7539 11.4399 10.3242 12.0962 9.52734C13.0337 8.35547 13.5024 7.27734 13.5024 6.29297C13.5024 5.47266 13.2212 4.78125 12.6587 4.21875C12.0962 3.65625 11.4165 3.375 10.6196 3.375C9.63525 3.375 8.81494 3.76172 8.15869 4.53516L7.31494 5.55469L6.47119 4.53516C5.81494 3.76172 4.99463 3.375 4.01025 3.375C3.21338 3.375 2.53369 3.65625 1.97119 4.21875C1.40869 4.78125 1.12744 5.47266 1.12744 6.29297C1.12744 7.27734 1.59619 8.35547 2.53369 9.52734C3.18994 10.3242 4.63135 11.7539 6.85791 13.8164L6.99854 13.957L7.31494 14.2383L7.63135 13.957L7.77197 13.8164Z" fill="#555555"/>
</g>
<defs>
<clipPath id="clip0_16_2873">
<rect width="14.63" height="18" fill="white" transform="matrix(1 0 0 -1 0 18)"/>
</clipPath>
</defs>
</svg>
