<svg width="14" height="14" viewBox="0 0 14 14" fill="none" xmlns="http://www.w3.org/2000/svg">
<path d="M6.75 9.5625C6.75 9.5625 6.28125 9.5625 5.34375 9.5625C4.40625 9.5625 3.9375 8.625 3.9375 6.75C3.9375 4.875 4.875 3.9375 6.75 3.9375C8.625 3.9375 9.5625 4.875 9.5625 6.75C9.5625 8.625 8.625 9.5625 6.75 9.5625ZM3.97266 3.97266C3.48047 4.46484 3.15234 5.01562 2.98828 5.625H0V1.6875C0 1.19531 0.164063 0.796875 0.492188 0.492188C0.867188 0.164062 1.27734 0 1.72266 0H11.8477C12.293 0 12.6797 0.164062 13.0078 0.492188C13.3359 0.820312 13.5 1.21875 13.5 1.6875V5.625H10.5469C10.3828 5.01562 10.0547 4.46484 9.5625 3.97266C8.78906 3.19922 7.85156 2.8125 6.75 2.8125C5.67188 2.8125 4.74609 3.19922 3.97266 3.97266ZM12.375 2.95312V1.58203C12.375 1.46484 12.3281 1.35938 12.2344 1.26562C12.1406 1.17188 12.0352 1.125 11.918 1.125H10.582C10.4648 1.125 10.3594 1.17188 10.2656 1.26562C10.1719 1.35938 10.125 1.46484 10.125 1.58203V2.95312C10.125 3.07031 10.1719 3.17578 10.2656 3.26953C10.3359 3.33984 10.4414 3.375 10.582 3.375H11.918C12.0586 3.375 12.1641 3.33984 12.2344 3.26953C12.3281 3.17578 12.375 3.07031 12.375 2.95312ZM9.5625 9.52734C10.3125 8.77734 10.6875 7.85156 10.6875 6.75H13.5V11.8125C13.5 12.2344 13.3359 12.6328 13.0078 13.0078C12.7031 13.3359 12.3164 13.5 11.8477 13.5H1.72266C1.25391 13.5 0.855469 13.3359 0.527344 13.0078C0.175781 12.6562 0 12.2578 0 11.8125V6.75H2.84766C2.84766 7.85156 3.22266 8.77734 3.97266 9.52734C4.74609 10.3008 5.67188 10.6875 6.75 10.6875C7.85156 10.6875 8.78906 10.3008 9.5625 9.52734Z" fill="white"/>
</svg>
