<svg width="25" height="44" viewBox="0 0 25 44" fill="none" xmlns="http://www.w3.org/2000/svg">
<g clip-path="url(#clip0_16_785)">
<path d="M20.1953 7.30469C20.1953 7.30469 19.6654 6.77474 18.6055 5.71484C17.5456 4.65495 15.4688 4.125 12.375 4.125C9.28125 4.125 6.67448 5.18489 4.55469 7.30469C2.4349 9.42448 1.375 12.0312 1.375 15.125C1.375 18.9062 3.38021 24.2344 7.39062 31.1094C9.28125 34.375 10.9427 36.9818 12.375 38.9297C13.8073 36.9818 15.4688 34.375 17.3594 31.1094C21.3698 24.2344 23.375 18.9062 23.375 15.125C23.375 12.0312 22.3151 9.42448 20.1953 7.30469ZM3.60938 6.35938C3.60938 6.35938 4.21094 5.75781 5.41406 4.55469C6.61719 3.35156 8.9375 2.75 12.375 2.75C15.8125 2.75 18.7344 3.95312 21.1406 6.35938C23.5469 8.76562 24.75 11.6875 24.75 15.125C24.75 17.9896 23.7188 21.599 21.6562 25.9531C19.5938 30.3073 17.5312 33.9453 15.4688 36.8672L12.375 41.25C11.4583 39.9896 10.3125 38.3711 8.9375 36.3945C7.5625 34.418 5.72917 31.0951 3.4375 26.4258C1.14583 21.7565 0 17.9896 0 15.125C0 11.6875 1.20312 8.76562 3.60938 6.35938ZM8.50781 11.2578C8.50781 11.2578 8.77995 10.9857 9.32422 10.4414C9.86849 9.89713 10.8854 9.625 12.375 9.625C13.8646 9.625 15.1536 10.1693 16.2422 11.2578C17.3307 12.3464 17.875 13.6354 17.875 15.125C17.875 16.6146 17.3307 17.9036 16.2422 18.9922C15.1536 20.0807 13.8646 20.625 12.375 20.625C10.8854 20.625 9.59635 20.0807 8.50781 18.9922C7.41927 17.9036 6.875 16.6146 6.875 15.125C6.875 13.6354 7.41927 12.3464 8.50781 11.2578ZM9.49609 18.0039C9.49609 18.0039 9.68945 18.1973 10.0762 18.584C10.4629 18.9707 11.2292 19.1641 12.375 19.1641C13.5208 19.1641 14.4805 18.7773 15.2539 18.0039C16.0273 17.2305 16.4141 16.2708 16.4141 15.125C16.4141 13.9792 16.0273 13.0195 15.2539 12.2461C14.4805 11.4727 13.5208 11.0859 12.375 11.0859C11.2292 11.0859 10.2695 11.4727 9.49609 12.2461C8.72266 13.0195 8.33594 13.9792 8.33594 15.125C8.33594 16.2708 8.72266 17.2305 9.49609 18.0039Z" fill="#253237"/>
</g>
<defs>
<clipPath id="clip0_16_785">
<rect width="24.75" height="44" fill="white" transform="matrix(1 0 0 -1 0 44)"/>
</clipPath>
</defs>
</svg>
