<svg width="18" height="18" viewBox="0 0 18 18" fill="none" xmlns="http://www.w3.org/2000/svg">
<g clip-path="url(#clip0_243_32)">
<path d="M16.56 15.0301C16.392 14.1061 16.08 13.2421 15.624 12.4381C15.168 11.6341 14.58 10.9441 13.86 10.3681C13.236 9.8281 12.504 9.3961 11.664 9.0721C12.24 8.6281 12.696 8.0791 13.032 7.4251C13.368 6.7711 13.536 6.0721 13.536 5.3281C13.536 4.4641 13.326 3.6691 12.906 2.9431C12.486 2.2171 11.913 1.6441 11.187 1.2241C10.461 0.804102 9.66599 0.594102 8.80199 0.594102C7.93799 0.594102 7.14299 0.804102 6.41699 1.2241C5.69099 1.6441 5.11799 2.2171 4.69799 2.9431C4.27799 3.6691 4.06799 4.4641 4.06799 5.3281C4.06799 6.0721 4.23599 6.7711 4.57199 7.4251C4.90799 8.0791 5.36399 8.6281 5.93999 9.0721C5.13599 9.4081 4.40999 9.8401 3.76199 10.3681C3.06599 10.9441 2.48399 11.6281 2.01599 12.4201C1.54799 13.2121 1.22999 14.0521 1.06199 14.9401L0.791992 16.3621L2.33999 16.6681L2.62799 15.2641C2.75999 14.5321 3.00899 13.8541 3.37499 13.2301C3.74099 12.6061 4.21199 12.0571 4.78799 11.5831C5.36399 11.1091 5.99699 10.7491 6.68699 10.5031C7.37699 10.2571 8.08199 10.1341 8.80199 10.1341C9.52199 10.1341 10.236 10.2601 10.944 10.5121C11.652 10.7641 12.282 11.1181 12.834 11.5741C13.41 12.0541 13.884 12.6151 14.256 13.2571C14.628 13.8991 14.874 14.5801 14.994 15.3001L15.264 16.7041L16.794 16.3981L16.56 15.0301ZM8.80199 2.1601C9.37799 2.1601 9.90899 2.3011 10.395 2.5831C10.881 2.8651 11.265 3.2491 11.547 3.7351C11.829 4.2211 11.97 4.7521 11.97 5.3281C11.97 5.9041 11.829 6.4351 11.547 6.9211C11.265 7.4071 10.881 7.7911 10.395 8.0731C9.90899 8.3551 9.37799 8.4961 8.80199 8.4961C8.22599 8.4961 7.69499 8.3551 7.20899 8.0731C6.72299 7.7911 6.33899 7.4071 6.05699 6.9211C5.77499 6.4351 5.63399 5.9041 5.63399 5.3281C5.63399 4.7521 5.77499 4.2211 6.05699 3.7351C6.33899 3.2491 6.72299 2.8651 7.20899 2.5831C7.69499 2.3011 8.22599 2.1601 8.80199 2.1601Z" fill="#3E445A"/>
</g>
<defs>
<clipPath id="clip0_243_32">
<rect width="18" height="18" fill="white" transform="matrix(1 0 0 -1 0 18)"/>
</clipPath>
</defs>
</svg>
