<svg width="31" height="44" viewBox="0 0 31 44" fill="none" xmlns="http://www.w3.org/2000/svg">
<g clip-path="url(#clip0_16_793)">
<path d="M28.875 28.875C30.5937 30.5938 30.5937 32.4844 28.875 34.5469C28.1875 35.349 27.5143 35.9505 26.8554 36.3516C26.1966 36.7526 25.6523 36.9818 25.2226 37.0391C24.7929 37.0964 24.177 37.125 23.375 37.125C21.1406 37.125 18.4765 35.9792 15.3828 33.6875C12.9192 31.9115 10.6849 29.9922 8.67965 27.9297C6.10153 25.237 3.83851 22.1719 1.89059 18.7344C0.17184 15.526 -0.343785 12.8906 0.343715 10.8281C0.687465 9.73958 1.48955 8.79427 2.74997 7.99219L2.8359 7.90625C3.86715 7.21875 4.78382 6.875 5.5859 6.875C6.67444 6.875 7.6484 7.39062 8.50778 8.42188L8.59372 8.50781C9.91142 10.2266 10.8281 11.5729 11.3437 12.5469C12.2031 14.3229 12.1744 15.8411 11.2578 17.1016C10.5703 18.0182 10.2265 18.6771 10.2265 19.0781C10.2265 19.25 10.5989 19.7656 11.3437 20.625L11.4297 20.7109C12.8047 22.2578 13.5494 23.0885 13.664 23.2031C13.7213 23.2031 13.7786 23.2318 13.8359 23.2891C13.8932 23.3464 13.9505 23.4036 14.0078 23.4609L14.1797 23.6328C15.3255 24.7786 16.1562 25.5807 16.6718 26.0391L16.7578 26.125C17.2734 26.5833 17.6172 26.8125 17.789 26.8125C18.0755 26.8125 18.9062 26.3828 20.2812 25.5234C20.6823 25.237 21.1692 25.0938 21.7422 25.0938C22.7734 25.0938 24.0195 25.5234 25.4804 26.3828C26.9414 27.2422 28.0729 28.0729 28.875 28.875ZM27.8437 33.6016C28.5885 32.5703 28.9323 31.8398 28.875 31.4102C28.8177 30.9805 28.5026 30.4792 27.9297 29.9062C27.2994 29.2188 26.3255 28.4883 25.0078 27.7148C23.6901 26.9414 22.6015 26.5547 21.7422 26.5547C21.513 26.5547 21.2838 26.612 21.0547 26.7266C19.3932 27.7578 18.3333 28.2734 17.875 28.2734C17.4166 28.2734 16.7578 27.901 15.8984 27.1562H15.8125C14.7812 26.2969 13.9218 25.4661 13.2343 24.6641L13.0625 24.4922C13.0052 24.4349 12.8906 24.349 12.7187 24.2344C12.5468 24.0625 11.7734 23.2031 10.3984 21.6562V21.5703C9.42444 20.4818 8.90882 19.6797 8.85153 19.1641C8.79424 18.4766 9.25257 17.5026 10.2265 16.2422C11.2005 14.9818 10.3125 12.7188 7.56247 9.45312L7.47653 9.36719C6.90361 8.67969 6.2734 8.33594 5.5859 8.33594C5.12757 8.33594 4.46872 8.59375 3.60934 9.10938L3.43746 9.19531C2.5208 9.76823 1.91924 10.4557 1.63278 11.2578C1.05986 12.9766 1.54684 15.2396 3.09371 18.0469C4.92705 21.4271 7.10413 24.4062 9.62497 26.9844C11.401 28.8177 13.5781 30.651 16.1562 32.4844C19.1927 34.6615 21.5989 35.75 23.375 35.75C24.4062 35.75 25.2083 35.6354 25.7812 35.4062C26.3541 35.1771 27.0416 34.5755 27.8437 33.6016Z" fill="#253237"/>
</g>
<defs>
<clipPath id="clip0_16_793">
<rect width="30.25" height="44" fill="white" transform="matrix(1 0 0 -1 0 44)"/>
</clipPath>
</defs>
</svg>
