<svg width="16" height="30" viewBox="0 0 16 30" fill="none" xmlns="http://www.w3.org/2000/svg">
<g clip-path="url(#clip0_16_2892)">
<path d="M2.30273 9.42773C2.30273 9.42773 2.68652 9.04395 3.4541 8.27637C4.22168 7.50879 5.69531 7.125 7.875 7.125C10.0547 7.125 11.9121 7.89258 13.4473 9.42773C14.9824 10.9629 15.75 12.8203 15.75 15C15.75 17.1797 14.9824 19.0371 13.4473 20.5723C11.9121 22.1074 10.0547 22.875 7.875 22.875C7.07812 22.875 6.32812 22.7695 5.625 22.5586C6.04688 21.8086 6.31641 21.2461 6.43359 20.8711L6.99609 18.6914C7.34766 19.3477 7.98047 19.6758 8.89453 19.6758C10.1602 19.6758 11.1855 19.1719 11.9707 18.1641C12.7559 17.1562 13.1484 15.8672 13.1484 14.2969C13.1484 13.0781 12.6797 12.0176 11.7422 11.1152C10.8047 10.2129 9.60938 9.76172 8.15625 9.76172C6.42188 9.76172 5.05078 10.2715 4.04297 11.291C3.03516 12.3105 2.53125 13.4414 2.53125 14.6836C2.53125 16.2539 3.07031 17.2617 4.14844 17.707C4.35938 17.8008 4.5 17.7305 4.57031 17.4961C4.57031 17.4492 4.58789 17.3438 4.62305 17.1797C4.6582 17.0156 4.6875 16.9102 4.71094 16.8633C4.75781 16.7227 4.72266 16.582 4.60547 16.4414C4.25391 16.0195 4.07812 15.5039 4.07812 14.8945C4.07812 13.8633 4.43555 12.9785 5.15039 12.2402C5.86523 11.502 6.79688 11.1328 7.94531 11.1328C8.97656 11.1328 9.78516 11.4082 10.3711 11.959C10.957 12.5098 11.25 13.2305 11.25 14.1211C11.25 15.293 11.0156 16.2832 10.5469 17.0918C10.0781 17.9004 9.48047 18.3047 8.75391 18.3047C8.33203 18.3047 7.99219 18.1582 7.73438 17.8652C7.47656 17.5723 7.39453 17.2148 7.48828 16.793C7.53516 16.5586 7.62305 16.2422 7.75195 15.8438C7.88086 15.4453 7.98633 15.0938 8.06836 14.7891C8.15039 14.4844 8.19141 14.2266 8.19141 14.0156C8.19141 13.6875 8.09766 13.4062 7.91016 13.1719C7.72266 12.9375 7.46484 12.8203 7.13672 12.8203C6.71484 12.8203 6.35742 13.0137 6.06445 13.4004C5.77148 13.7871 5.625 14.2734 5.625 14.8594C5.625 15.0703 5.64844 15.2812 5.69531 15.4922C5.74219 15.7031 5.78906 15.8672 5.83594 15.9844L5.87109 16.125C5.28516 18.5625 4.94531 19.9922 4.85156 20.4141C4.71094 20.9766 4.66406 21.5742 4.71094 22.207C3.30469 21.5742 2.16797 20.6133 1.30078 19.3242C0.433594 18.0352 0 16.5938 0 15C0 12.8203 0.767578 10.9629 2.30273 9.42773Z" fill="#B4B4B4"/>
</g>
<defs>
<clipPath id="clip0_16_2892">
<rect width="15.75" height="30" fill="white" transform="matrix(1 0 0 -1 0 30)"/>
</clipPath>
</defs>
</svg>
