<svg width="20" height="20" viewBox="0 0 20 20" fill="none" xmlns="http://www.w3.org/2000/svg">
<path d="M18.0859 17.3242L15 14.2578C15.4948 13.6328 15.8952 12.9167 16.2012 12.1094C16.5072 11.3021 16.6602 10.4622 16.6602 9.58984C16.6602 8.54818 16.4648 7.57161 16.0742 6.66016C15.6836 5.7487 15.1497 4.95443 14.4727 4.27734C13.7956 3.60026 13.0013 3.06641 12.0898 2.67578C11.1784 2.28516 10.2018 2.08984 9.16016 2.08984C8.11849 2.08984 7.14193 2.28516 6.23047 2.67578C5.31901 3.06641 4.52474 3.60026 3.84766 4.27734C3.17057 4.95443 2.63672 5.7487 2.24609 6.66016C1.85547 7.57161 1.66016 8.54818 1.66016 9.58984C1.66016 10.6315 1.85547 11.6081 2.24609 12.5195C2.63672 13.431 3.17057 14.2253 3.84766 14.9023C4.52474 15.5794 5.31901 16.1133 6.23047 16.5039C7.14193 16.8945 8.11849 17.0898 9.16016 17.0898C10.0456 17.0898 10.8887 16.9466 11.6895 16.6602C12.4902 16.3737 13.2031 15.957 13.8281 15.4102L16.9141 18.4961C17.0052 18.5872 17.1061 18.6523 17.2168 18.6914C17.3275 18.7305 17.4219 18.75 17.5 18.75C17.5781 18.75 17.6725 18.7305 17.7832 18.6914C17.8939 18.6523 17.9948 18.5872 18.0859 18.4961C18.2552 18.3268 18.3398 18.1315 18.3398 17.9102C18.3398 17.6888 18.2552 17.4935 18.0859 17.3242ZM3.33984 9.58984C3.33984 8.76953 3.48958 8.00781 3.78906 7.30469C4.08854 6.58854 4.50195 5.97005 5.0293 5.44922C5.55664 4.92839 6.17188 4.51172 6.875 4.19922C7.59115 3.89974 8.35286 3.75 9.16016 3.75C9.98047 3.75 10.7422 3.89974 11.4453 4.19922C12.1615 4.51172 12.7799 4.92839 13.3008 5.44922C13.8216 5.97005 14.2383 6.58854 14.5508 7.30469C14.8503 8.00781 15 8.76953 15 9.58984C15 10.3711 14.847 11.1198 14.541 11.8359C14.235 12.5521 13.8346 13.1641 13.3398 13.6719C12.793 14.2057 12.1712 14.6159 11.4746 14.9023C10.778 15.1888 10.0391 15.332 9.25781 15.332C8.42448 15.3581 7.64323 15.2214 6.91406 14.9219C6.19792 14.6354 5.57292 14.2318 5.03906 13.7109C4.50521 13.1901 4.08854 12.5716 3.78906 11.8555C3.48958 11.1523 3.33984 10.3971 3.33984 9.58984Z" fill="white"/>
</svg>
