<svg width="13" height="16" viewBox="0 0 13 16" fill="none" xmlns="http://www.w3.org/2000/svg">
<g clip-path="url(#clip0_16_281)">
<path d="M11.0938 12.5938C11.0938 12.5938 10.776 12.9115 10.1406 13.5469C9.50521 14.1823 8.29167 14.5 6.5 14.5C4.70833 14.5 3.17708 13.8646 1.90625 12.5938C0.635417 11.3229 0 9.79167 0 8C0 6.20833 0.635417 4.67708 1.90625 3.40625C3.17708 2.13542 4.70833 1.5 6.5 1.5C8.29167 1.5 9.82292 2.13542 11.0938 3.40625C12.3646 4.67708 13 6.20833 13 8C13 9.79167 12.3646 11.3229 11.0938 12.5938ZM5.5 11L8.5 8L5.5 5V11Z" fill="#0090F0"/>
</g>
<defs>
<clipPath id="clip0_16_281">
<rect width="13" height="16" fill="white" transform="matrix(1 0 0 -1 0 16)"/>
</clipPath>
</defs>
</svg>
