<svg width="17" height="14" viewBox="0 0 17 14" fill="none" xmlns="http://www.w3.org/2000/svg">
<path d="M16.6 1.61694C16.178 2.27305 15.6153 2.85885 14.9119 3.37436V3.79614C14.9119 6.25652 14.0268 8.48844 12.2566 10.4919C10.4864 12.4953 8.13588 13.4971 5.20508 13.4971C3.32938 13.4971 1.59435 12.9816 0 11.9505C0.375141 11.9974 0.644774 12.0208 0.808898 12.0208C2.3798 12.0208 3.78658 11.5288 5.02924 10.5446C4.3024 10.5212 3.6459 10.2927 3.05975 9.85922C2.47359 9.42572 2.075 8.86921 1.86398 8.18968C2.14534 8.23654 2.35636 8.25997 2.49703 8.25997C2.7315 8.25997 3.0363 8.21311 3.41144 8.11938C2.63771 7.95535 1.98708 7.56286 1.45953 6.94191C0.931992 6.32096 0.66822 5.60042 0.66822 4.78029V4.74514C1.18404 5.02633 1.69986 5.16692 2.21568 5.16692C1.20749 4.51082 0.70339 3.56182 0.70339 2.31991C0.70339 1.7341 0.855791 1.17173 1.16059 0.632792C2.96596 2.85885 5.29887 4.04218 8.15932 4.18277C8.11243 4.01874 8.08898 3.76099 8.08898 3.40951C8.08898 2.44879 8.41723 1.64038 9.07373 0.984274C9.73023 0.328173 10.5391 0.00012207 11.5004 0.00012207C12.4617 0.00012207 13.2823 0.36332 13.9623 1.08972C14.6657 0.972558 15.3925 0.691372 16.1428 0.24616C15.9083 1.06629 15.4042 1.69896 14.6305 2.14417C15.3573 2.07387 16.0138 1.89813 16.6 1.61694Z" fill="white"/>
</svg>
