<svg width="17" height="30" viewBox="0 0 17 30" fill="none" xmlns="http://www.w3.org/2000/svg">
<g clip-path="url(#clip0_16_2886)">
<path d="M16.59 9.86841C16.1682 10.5245 15.6058 11.1103 14.9029 11.6258V12.0476C14.9029 14.508 14.0183 16.7399 12.2492 18.7434C10.4801 20.7468 8.13097 21.7485 5.20195 21.7485C3.32737 21.7485 1.59339 21.233 0 20.202C0.374915 20.2489 0.644386 20.2723 0.808411 20.2723C2.37837 20.2723 3.7843 19.7802 5.02621 18.7961C4.29981 18.7726 3.64371 18.5442 3.0579 18.1107C2.4721 17.6772 2.07375 17.1207 1.86286 16.4411C2.14405 16.488 2.35494 16.5114 2.49553 16.5114C2.72985 16.5114 3.03447 16.4646 3.40939 16.3708C2.63612 16.2068 1.98588 15.8143 1.45865 15.1934C0.93143 14.5724 0.667818 13.8519 0.667818 13.0318V12.9966C1.18333 13.2778 1.69883 13.4184 2.21434 13.4184C1.20676 12.7623 0.702966 11.8133 0.702966 10.5714C0.702966 9.98557 0.855275 9.4232 1.15989 8.88426C2.96417 11.1103 5.29568 12.2936 8.15441 12.4342C8.10754 12.2702 8.08411 12.0125 8.08411 11.661C8.08411 10.7003 8.41216 9.89184 9.06826 9.23574C9.72436 8.57964 10.5328 8.25159 11.4935 8.25159C12.4542 8.25159 13.2743 8.61479 13.9539 9.34118C14.6568 9.22402 15.3832 8.94284 16.1331 8.49762C15.8987 9.31775 15.395 9.95042 14.6217 10.3956C15.3481 10.3253 16.0042 10.1496 16.59 9.86841Z" fill="#B4B4B4"/>
</g>
<defs>
<clipPath id="clip0_16_2886">
<rect width="16.59" height="30" fill="white" transform="matrix(1 0 0 -1 0 30)"/>
</clipPath>
</defs>
</svg>
