<svg width="11" height="13" viewBox="0 0 11 13" fill="none" xmlns="http://www.w3.org/2000/svg">
<g clip-path="url(#clip0_16_74)">
<path d="M7.66615 1.62633C8.47846 1.62633 9.16385 1.90556 9.72231 2.46402C10.2808 3.02249 10.56 3.71633 10.56 4.54556C10.56 5.03633 10.4712 5.50595 10.2935 5.95441C10.1158 6.40287 9.77731 6.91479 9.27808 7.49018C8.77885 8.06556 8.33462 8.53941 7.94538 8.91172C7.55615 9.28402 6.92154 9.87633 6.04154 10.6886L5.28 11.374L4.51846 10.6886C3.63846 9.87633 3.00385 9.28402 2.61462 8.91172C2.22538 8.53941 1.78115 8.06556 1.28192 7.49018C0.782692 6.91479 0.444231 6.40287 0.266538 5.95441C0.0888462 5.50595 0 5.03633 0 4.54556C0 3.71633 0.279231 3.02249 0.837692 2.46402C1.39615 1.90556 2.08154 1.62633 2.89385 1.62633C3.85846 1.62633 4.65385 1.99864 5.28 2.74325C5.90615 1.99864 6.70154 1.62633 7.66615 1.62633ZM5.61 9.97787C7.21769 8.48864 8.25846 7.45633 8.73231 6.88095C9.40923 6.03479 9.74769 5.25633 9.74769 4.54556C9.74769 3.95325 9.54462 3.45402 9.13846 3.04787C8.73231 2.64172 8.24154 2.43864 7.66615 2.43864C6.95538 2.43864 6.36308 2.71787 5.88923 3.27633L5.28 4.01249L4.67077 3.27633C4.19692 2.71787 3.60462 2.43864 2.89385 2.43864C2.31846 2.43864 1.82769 2.64172 1.42154 3.04787C1.01538 3.45402 0.812308 3.95325 0.812308 4.54556C0.812308 5.25633 1.15077 6.03479 1.82769 6.88095C2.30154 7.45633 3.34231 8.48864 4.95 9.97787L5.05154 10.0794L5.28 10.2825L5.50846 10.0794L5.61 9.97787Z" fill="#253237"/>
</g>
<defs>
<clipPath id="clip0_16_74">
<rect width="10.56" height="13" fill="white" transform="matrix(1 0 0 -1 0 13)"/>
</clipPath>
</defs>
</svg>
